<?xml version="1.0" encoding="UTF-8" standalone="no"?>
<!-- Created with Inkscape (http://www.inkscape.org/) -->

<svg
   width="3280"
   height="2464"
   viewBox="0 0 10.933333 8.2133331"
   version="1.1"
   id="svg1"
   xml:space="preserve"
   inkscape:version="1.4 (86a8ad7, 2024-10-11)"
   sodipodi:docname="Frames.svg"
   inkscape:export-filename="collage_nine_square.png"
   inkscape:export-xdpi="96"
   inkscape:export-ydpi="96"
   xmlns:inkscape="http://www.inkscape.org/namespaces/inkscape"
   xmlns:sodipodi="http://sodipodi.sourceforge.net/DTD/sodipodi-0.dtd"
   xmlns="http://www.w3.org/2000/svg"
   xmlns:svg="http://www.w3.org/2000/svg"><sodipodi:namedview
     id="namedview1"
     pagecolor="#ffffff"
     bordercolor="#666666"
     borderopacity="1.0"
     inkscape:showpageshadow="2"
     inkscape:pageopacity="0.0"
     inkscape:pagecheckerboard="0"
     inkscape:deskcolor="#d1d1d1"
     inkscape:document-units="in"
     inkscape:lockguides="false"
     showgrid="false"
     inkscape:zoom="0.19748248"
     inkscape:cx="2114.1115"
     inkscape:cy="1222.8933"
     inkscape:window-width="1600"
     inkscape:window-height="829"
     inkscape:window-x="-8"
     inkscape:window-y="-8"
     inkscape:window-maximized="1"
     inkscape:current-layer="layer1"
     inkscape:export-bgcolor="#00000000"><inkscape:grid
       id="grid1"
       units="in"
       originx="0"
       originy="0"
       spacingx="0.0033333332"
       spacingy="0.0033333332"
       empcolor="#0099e5"
       empopacity="0.30196078"
       color="#0099e5"
       opacity="0.14901961"
       empspacing="5"
       enabled="true"
       visible="true" /><inkscape:grid
       type="axonomgrid"
       id="grid2"
       units="in"
       originx="0"
       originy="0"
       spacingx="0.012598425"
       spacingy="0.012598425"
       empcolor="#0099e5"
       empopacity="0.30196078"
       color="#0099e5"
       opacity="0.14901961"
       empspacing="5"
       dotted="false"
       gridanglex="30"
       gridanglez="30"
       enabled="false"
       visible="false" /><inkscape:grid
       type="modular"
       id="grid3"
       units="in"
       originx="0"
       originy="0"
       spacingx="0.50393699"
       spacingy="0.50393699"
       empcolor="#0047cb"
       empopacity="0.30196078"
       color="#0099e5"
       opacity="0.14901961"
       empspacing="0"
       marginx="0"
       marginy="0"
       gapx="0.12598425"
       gapy="0.12598425"
       enabled="false"
       visible="false" /><inkscape:grid
       id="grid4"
       units="in"
       originx="0"
       originy="0"
       spacingx="0.0033333332"
       spacingy="0.0033333332"
       empcolor="#0099e5"
       empopacity="0.30196078"
       color="#0099e5"
       opacity="0.14901961"
       empspacing="5"
       enabled="false"
       visible="false" /><inkscape:grid
       type="axonomgrid"
       id="grid5"
       units="in"
       originx="0"
       originy="0"
       spacingx="0.012598425"
       spacingy="0.012598425"
       empcolor="#0099e5"
       empopacity="0.30196078"
       color="#0099e5"
       opacity="0.14901961"
       empspacing="5"
       dotted="false"
       gridanglex="30"
       gridanglez="30"
       enabled="false"
       visible="false" /><inkscape:grid
       type="modular"
       id="grid6"
       units="in"
       originx="0"
       originy="0"
       spacingx="0.50393699"
       spacingy="0.50393699"
       empcolor="#0047cb"
       empopacity="0.30196078"
       color="#0099e5"
       opacity="0.14901961"
       empspacing="0"
       marginx="0"
       marginy="0"
       gapx="0.12598425"
       gapy="0.12598425"
       enabled="false"
       visible="false" /><inkscape:grid
       id="grid7"
       units="in"
       originx="0"
       originy="0"
       spacingx="0.0033333332"
       spacingy="0.0033333332"
       empcolor="#0099e5"
       empopacity="0.30196078"
       color="#0099e5"
       opacity="0.14901961"
       empspacing="5"
       enabled="false"
       visible="false" /><inkscape:grid
       type="axonomgrid"
       id="grid8"
       units="in"
       originx="0"
       originy="0"
       spacingx="0.012598425"
       spacingy="0.012598425"
       empcolor="#0099e5"
       empopacity="0.30196078"
       color="#0099e5"
       opacity="0.14901961"
       empspacing="5"
       dotted="false"
       gridanglex="30"
       gridanglez="30"
       enabled="false"
       visible="false" /><inkscape:grid
       type="modular"
       id="grid9"
       units="in"
       originx="0"
       originy="0"
       spacingx="0.50393699"
       spacingy="0.50393699"
       empcolor="#0047cb"
       empopacity="0.30196078"
       color="#0099e5"
       opacity="0.14901961"
       empspacing="0"
       marginx="0"
       marginy="0"
       gapx="0.12598425"
       gapy="0.12598425"
       enabled="false"
       visible="false" /><inkscape:grid
       id="grid10"
       units="in"
       originx="0"
       originy="0"
       spacingx="0.0033333332"
       spacingy="0.0033333332"
       empcolor="#0099e5"
       empopacity="0.30196078"
       color="#0099e5"
       opacity="0.14901961"
       empspacing="5"
       enabled="false"
       visible="false" /></sodipodi:namedview><defs
     id="defs1" /><g
     inkscape:label="Layer 1"
     inkscape:groupmode="layer"
     id="layer1"
     style="display:inline"><rect
       style="display:inline;fill:#ff0000;fill-opacity:1;stroke:none;stroke-width:0.00152441;stroke-opacity:1"
       id="rect12"
       width="10.933333"
       height="8.2133331"
       x="0"
       y="0"
       inkscape:label="Background for viewing/editing" /></g><g
     inkscape:groupmode="layer"
     id="layer2"
     inkscape:label="Frame"
     style="display:inline"><rect
       style="display:inline;fill:#ffffff;fill-opacity:1;stroke:none;stroke-width:0.00167215;stroke-opacity:1"
       id="rect11-1"
       width="0.099999994"
       height="8.0133333"
       x="10.833333"
       y="0.099999994"
       inkscape:label="Right" /><rect
       style="display:inline;fill:#ffffff;fill-opacity:1;stroke:none;stroke-width:0.00167215;stroke-opacity:1"
       id="rect11"
       width="0.099999994"
       height="8.0133333"
       x="0"
       y="0.099999994"
       inkscape:label="Left" /><rect
       style="display:inline;fill:#ffffff;fill-opacity:1;stroke:none;stroke-width:0.0164369;stroke-opacity:1"
       id="rect10-5"
       width="10.933333"
       height="0.099999994"
       x="0"
       y="8.1133327"
       inkscape:label="Bottom Bar" /><rect
       style="display:inline;fill:#ffffff;fill-opacity:1;stroke:none;stroke-width:0.0164369;stroke-opacity:1"
       id="rect10"
       width="10.933333"
       height="0.099999994"
       x="0"
       y="0"
       inkscape:label="Top" /></g><g
     inkscape:groupmode="layer"
     id="layer3"
     inkscape:label="Frame 4"
     style="display:none"><rect
       style="display:inline;fill:#ffffff;fill-opacity:1;stroke:none;stroke-width:0.00167215;stroke-opacity:1"
       id="rect11-6"
       width="0.099999994"
       height="8.0133333"
       x="5.4166665"
       y="0.099999994"
       inkscape:label="Center Vertical" /><rect
       style="display:inline;fill:#ffffff;fill-opacity:1;stroke:none;stroke-width:0.0164369;stroke-opacity:1"
       id="rect10-3"
       width="10.933333"
       height="0.099999994"
       x="0"
       y="4.0566664"
       inkscape:label="Middle Horzontal" /></g><g
     inkscape:groupmode="layer"
     id="layer4"
     inkscape:label="Frame 9"
     style="display:inline"><rect
       style="display:inline;fill:#ffffff;fill-opacity:1;stroke:none;stroke-width:0.0164369;stroke-opacity:1"
       id="rect10-3-6"
       width="10.933333"
       height="0.099999994"
       x="0"
       y="2.6899998"
       inkscape:label="Bottom Horzontal" /><rect
       style="display:inline;fill:#ffffff;fill-opacity:1;stroke:none;stroke-width:0.0164369;stroke-opacity:1"
       id="rect10-3-61"
       width="10.933333"
       height="0.099999994"
       x="0"
       y="5.4299998"
       inkscape:label="Top Horzontal" /><rect
       style="display:inline;fill:#ffffff;fill-opacity:1;stroke:none;stroke-width:0.00167215;stroke-opacity:1"
       id="rect11-6-7"
       width="0.099999994"
       height="8.0133333"
       x="7.2433333"
       y="0.099999994"
       inkscape:label="Right Vertical" /><rect
       style="display:inline;fill:#ffffff;fill-opacity:1;stroke:none;stroke-width:0.00167215;stroke-opacity:1"
       id="rect11-6-3"
       width="0.099999994"
       height="8.0133333"
       x="3.5966666"
       y="0.099999994"
       inkscape:label="Left Vertical" /></g><g
     inkscape:groupmode="layer"
     id="layer9"
     inkscape:label="2025-06-21 Matsa &amp; Justin"
     style="display:inline"><g
       id="g2"
       transform="matrix(0.00661533,0,0,0.00661533,8.3947751,6.2482042)"
       style="display:inline"><g
         id="layer8"
         inkscape:label="Photo Logo"><path
           style="font-weight:bold;font-size:18.0003px;font-family:'Script MT Bold';-inkscape-font-specification:'Script MT Bold,  Bold';text-align:center;text-anchor:middle;fill:#ffffff;fill-opacity:1;stroke:#000000;stroke-width:0.132297;stroke-opacity:1"
           d="m 114.28904,221.45943 q 1.3139,-0.40697 2.5464,-0.40697 0.23255,0 1.65109,0.12793 1.43017,0.11629 1.6976,0.11629 0.66276,0 1.08134,-0.23255 0.43021,-0.24418 0.68602,-0.94186 0.0814,-0.23255 0.16278,-0.23255 0.20929,0 0.45347,0.11629 0.24417,0.10465 0.24417,0.17442 0,0.38371 -0.62788,1.69767 -0.61625,1.30231 -1.26738,1.74416 -0.65113,0.44186 -1.96503,0.44186 -0.29068,0 -2.04642,-0.15116 -1.7441,-0.13953 -2.06967,-0.13953 -1.13948,0 -1.68597,0.13953 -0.54649,0.15116 -0.60462,0.15116 -0.16279,0 -0.16279,-0.22093 0,-0.69767 0.2558,-1.37209 0.26743,-0.67441 1.17437,-1.77904 0.91856,-1.11627 2.70918,-2.77905 l 1.31389,-1.20928 q 1.55807,-1.4651 2.18595,-2.8023 0.63951,-1.34883 0.63951,-2.74417 0,-1.18602 -0.61625,-1.90696 -0.60463,-0.72092 -1.59295,-0.72092 -0.94182,0 -1.63947,0.68605 -0.69764,0.67441 -0.69764,1.60463 0,0.77906 0.76741,1.3837 0.40696,0.30233 0.40696,0.54652 0,0.32557 -0.88368,0.75579 -0.88369,0.43025 -1.43017,0.43025 -0.44184,0 -0.76741,-0.41862 -0.32557,-0.43022 -0.32557,-1.03487 0,-1.94183 1.86038,-3.58135 1.87201,-1.65115 4.1161,-1.65115 1.84875,0 3.03475,1.12789 1.19762,1.11628 1.19762,2.84881 0,1.39533 -0.79067,2.58137 -0.77903,1.18603 -1.87201,2.08137 -1.09297,0.88372 -2.88359,2.10464 -1.79061,1.20929 -2.74406,1.95347 -0.94182,0.73255 -1.51156,1.51161 z m 15.23187,-11.90686 q -1.84875,1.54651 -2.61616,2.90696 -0.29068,0.47673 -0.40695,0.47673 -0.23256,0 -0.43022,-0.12793 -0.18604,-0.13953 -0.18604,-0.30232 0,-0.19767 0.60463,-1.06975 0.60462,-0.88371 2.02316,-2.20928 1.43016,-1.32557 2.11619,-1.65115 0.68601,-0.32558 1.77899,-0.32558 0.56974,0 0.56974,0.29069 0,0.0233 -0.0233,0.34884 v 0.0233 l -0.98832,3.91856 -1.2674,4.86042 q -0.73252,2.77904 -1.33715,4.75575 -0.59299,1.9651 -0.82554,2.17441 -0.22092,0.20929 -0.99995,0.3372 -0.77904,0.12793 -1.76736,0.12793 -0.60463,0 -0.60463,-0.2907 0,-0.26743 0.19767,-0.73255 1.88364,-5.10459 4.1626,-13.51149 z m 22.98734,11.67431 q -1.08135,1.2093 -4.24399,2.45346 -1.09298,3.12788 -2.9301,4.60461 -1.82551,1.48836 -3.45334,1.48836 -0.74415,0 -1.20925,-0.47674 -0.45347,-0.46512 -0.45347,-1.23255 0,-2.55811 4.97653,-4.29065 0.88368,-5.24414 1.30227,-7.16273 0.41858,-1.93021 0.96506,-3.03485 0.54649,-1.11626 1.68598,-2.56974 1.13948,-1.4651 1.43016,-1.93021 -1.12785,0.60465 -1.90689,0.60465 -0.46509,0 -1.12785,-0.27908 -0.66277,-0.27906 -1.18599,-0.27906 -0.87206,0 -1.54645,0.66279 -0.66276,0.65115 -0.66276,1.48836 0,0.72092 0.593,1.18603 0.593,0.45349 0.593,0.63952 0,0.17442 -0.52324,0.75581 -0.52323,0.58139 -0.83717,0.58139 -0.30231,0 -0.76741,-0.56976 -0.4651,-0.58139 -0.4651,-1.45347 0,-1.7558 1.66272,-3.46509 1.66272,-1.72091 3.36032,-1.72091 0.55811,0 1.20925,0.31395 0.65112,0.30232 1.10459,0.30232 0.62788,0 1.34878,-0.61627 0.90694,0.10464 0.90694,0.34884 0,0.16279 -0.53486,1.01161 -0.52324,0.8372 -0.95345,2.15114 -0.41858,1.30231 -0.7209,3.41857 l -0.17441,1.16278 q -0.74415,5.25576 -1.30226,7.20923 2.49988,-0.84882 3.86029,-2.63951 z m -7.58106,3.59298 q -3.80215,1.34883 -3.80215,3.13951 0,0.36047 0.22092,0.59302 0.23255,0.24418 0.58137,0.24418 0.77904,0 1.61621,-0.94185 0.84879,-0.93022 1.38365,-3.03486 z m 19.98747,-3.59298 q -1.53481,1.45347 -2.56964,2.15114 -1.03484,0.68605 -1.86038,0.68605 -0.91857,0 -1.41855,-0.73255 -0.48834,-0.73255 -0.48834,-1.98836 -1.27902,1.40697 -2.2906,2.08137 -1.01158,0.66278 -1.97665,0.66278 -0.88368,0 -1.41855,-0.73255 -0.53486,-0.73255 -0.53486,-1.98835 0,-2.41858 1.62784,-6.81389 l 3.09288,-0.61626 q -1.90689,5.56971 -1.90689,7.15109 0,1.11626 0.83717,1.11626 0.60463,0 1.49994,-0.97673 0.89531,-0.98836 1.11622,-1.72091 l 1.52319,-4.95345 3.16264,-0.63952 q -1.09296,3.49997 -1.49992,4.91855 -0.40697,1.4186 -0.40697,1.98836 0,1.09301 0.74416,1.09301 0.60462,0 1.79061,-1.10464 l 0.9767,-0.9186 z m 11.40647,0 q -2.68593,2.83719 -4.60445,2.83719 -0.77902,0 -1.25575,-0.54652 -0.47672,-0.5465 -0.47672,-1.4651 0,-1.24417 1.0232,-3.80229 0.54649,-1.37207 0.54649,-1.74416 0,-0.37209 -0.29069,-0.37209 -0.16278,0 -0.43021,0.16278 -0.24417,0.16279 -0.56974,0.45349 -0.29068,0.26745 -0.65112,0.65116 -0.31395,0.32558 -0.6744,0.74418 l -0.65113,0.75581 q -0.43022,0.52324 -0.53486,1.10463 -0.17442,0.98837 -0.23255,1.81394 -0.0349,0.61628 -0.0349,1.66278 l -2.56965,0.60463 q -0.12792,-1.56975 -0.12792,-2.33718 0,-1.87207 0.43021,-3.54647 0.44184,-1.67441 1.40692,-3.76741 l 2.83709,-0.5465 q -0.89531,2.40694 -1.17437,3.79065 1.90689,-2.12787 3.02311,-2.94183 1.12786,-0.82557 1.99991,-0.82557 0.593,0 0.98834,0.45349 0.39532,0.44186 0.39532,1.11626 0,1.11626 -0.99995,3.67438 -0.68602,1.7558 -0.68602,2.27906 0,0.69766 0.56975,0.69766 0.8488,0 2.74406,-2.24417 z m 8.68566,0 q -1.47668,1.45347 -2.65105,2.15114 -1.17436,0.68605 -2.59291,0.68605 -1.58132,0 -2.55802,-1.01162 -0.96508,-1.01163 -0.96508,-2.66277 0,-2.4651 1.70923,-4.45344 1.70923,-1.99998 3.79053,-1.99998 1.08134,0 1.73248,0.55813 0.65113,0.55813 0.65113,1.4651 0,2.40695 -5.11605,3.90694 0.46509,2.26742 2.43013,2.26742 0.76741,0 1.46505,-0.40697 0.69764,-0.41861 2.10456,-1.8372 z m -6.09276,-2.15113 q 2.97662,-0.83721 2.97662,-3.093 0,-1.11627 -0.81393,-1.11627 -0.7674,0 -1.46505,1.1744 -0.69764,1.16278 -0.69764,3.03487 z m 14.05752,2.38368 q 1.31389,-0.40697 2.54638,-0.40697 0.23256,0 1.65109,0.12793 1.43017,0.11629 1.6976,0.11629 0.66276,0 1.08135,-0.23255 0.43021,-0.24418 0.68601,-0.94186 0.0814,-0.23255 0.16278,-0.23255 0.2093,0 0.45347,0.11629 0.24419,0.10465 0.24419,0.17442 0,0.38371 -0.62789,1.69767 -0.61625,1.30231 -1.26738,1.74416 -0.65113,0.44186 -1.96503,0.44186 -0.29068,0 -2.04642,-0.15116 -1.7441,-0.13953 -2.06967,-0.13953 -1.13948,0 -1.68598,0.13953 -0.54648,0.15116 -0.60462,0.15116 -0.16277,0 -0.16277,-0.22093 0,-0.69767 0.25579,-1.37209 0.26743,-0.67441 1.17437,-1.77904 0.91857,-1.11627 2.70917,-2.77905 l 1.3139,-1.20928 q 1.55807,-1.4651 2.18596,-2.8023 0.63949,-1.34883 0.63949,-2.74417 0,-1.18602 -0.61625,-1.90696 -0.60461,-0.72092 -1.59295,-0.72092 -0.94181,0 -1.63946,0.68605 -0.69764,0.67441 -0.69764,1.60463 0,0.77906 0.76741,1.3837 0.40695,0.30233 0.40695,0.54652 0,0.32557 -0.88368,0.75579 -0.88368,0.43025 -1.43016,0.43025 -0.44184,0 -0.76741,-0.41862 -0.32557,-0.43022 -0.32557,-1.03487 0,-1.94183 1.86039,-3.58135 1.872,-1.65115 4.11609,-1.65115 1.84875,0 3.03474,1.12789 1.19762,1.11628 1.19762,2.84881 0,1.39533 -0.79066,2.58137 -0.77903,1.18603 -1.87201,2.08137 -1.09298,0.88372 -2.88358,2.10464 -1.79062,1.20929 -2.74407,1.95347 -0.94181,0.73255 -1.51155,1.51161 z m 21.92923,-9.56967 q 0.0814,0.0697 0.34882,0.17442 0.26743,0.10464 0.26743,0.34884 0,0.34884 -0.12792,0.47674 -0.11629,0.11629 -0.37209,0.0814 -0.24417,-0.0349 -0.29068,-0.0349 -2.30222,11.1278 -7.38339,11.1278 -1.55807,0 -2.49989,-1.26744 -0.94181,-1.26742 -0.94181,-3.38368 0,-3.15113 1.53481,-6.22086 1.53482,-3.08137 3.47659,-4.49997 1.94178,-1.41858 2.69755,-1.41858 0.18604,0 0.18604,0.40697 0,0.30232 -0.30231,0.59301 -1.81387,1.77906 -3.01149,5.19763 -1.18599,3.40695 -1.18599,6.05807 0,1.30232 0.41858,2.0465 0.43021,0.74417 1.16274,0.74417 1.31389,0 2.61616,-2.3023 1.31389,-2.31392 2.40687,-7.26736 -1.74411,-0.51163 -1.74411,-2.19765 0,-0.98837 0.54649,-2.13952 0.54648,-1.16278 1.26738,-1.16278 1.04646,0 1.04646,2.52323 0,1.09301 -0.11628,2.11625 z m 2.90685,9.56967 q 1.3139,-0.40697 2.54639,-0.40697 0.23256,0 1.65109,0.12793 1.43017,0.11629 1.69761,0.11629 0.66275,0 1.08134,-0.23255 0.43021,-0.24418 0.68601,-0.94186 0.0814,-0.23255 0.16278,-0.23255 0.2093,0 0.45347,0.11629 0.24419,0.10465 0.24419,0.17442 0,0.38371 -0.62789,1.69767 -0.61625,1.30231 -1.26738,1.74416 -0.65114,0.44186 -1.96503,0.44186 -0.29068,0 -2.04642,-0.15116 -1.7441,-0.13953 -2.06967,-0.13953 -1.13948,0 -1.68598,0.13953 -0.54648,0.15116 -0.60461,0.15116 -0.16279,0 -0.16279,-0.22093 0,-0.69767 0.2558,-1.37209 0.26743,-0.67441 1.17437,-1.77904 0.91856,-1.11627 2.70917,-2.77905 l 1.31391,-1.20928 q 1.55806,-1.4651 2.18594,-2.8023 0.6395,-1.34883 0.6395,-2.74417 0,-1.18602 -0.61625,-1.90696 -0.60461,-0.72092 -1.59295,-0.72092 -0.94181,0 -1.63946,0.68605 -0.69764,0.67441 -0.69764,1.60463 0,0.77906 0.76741,1.3837 0.40695,0.30233 0.40695,0.54652 0,0.32557 -0.88368,0.75579 -0.88368,0.43025 -1.43016,0.43025 -0.44185,0 -0.76741,-0.41862 -0.32557,-0.43022 -0.32557,-1.03487 0,-1.94183 1.86039,-3.58135 1.872,-1.65115 4.11609,-1.65115 1.84875,0 3.03474,1.12789 1.19762,1.11628 1.19762,2.84881 0,1.39533 -0.79066,2.58137 -0.77903,1.18603 -1.87201,2.08137 -1.09298,0.88372 -2.88358,2.10464 -1.79062,1.20929 -2.74408,1.95347 -0.94181,0.73255 -1.51155,1.51161 z m 22.09202,-14.20915 q -0.3372,1.41858 -0.86042,2.10463 -0.51161,0.68604 -1.186,0.88371 -0.66276,0.19767 -1.76736,0.19767 -1.12785,0 -2.66267,-0.18604 l -0.9767,3.59298 q 1.03484,-0.26744 1.93015,-0.26744 2.08129,0 3.46496,1.34883 1.39527,1.34883 1.39527,3.37206 0,2.44183 -1.83712,4.10461 -1.83713,1.66278 -4.5463,1.66278 -2.0813,0 -3.29056,-1 -1.20925,-0.99999 -1.20925,-2.1744 0,-0.37208 0.10465,-0.59302 0.10464,-0.23255 0.41858,-0.39534 0.32557,-0.17442 1.02321,-0.47674 0.69764,-0.31395 0.95344,-0.31395 0.27907,0 0.27907,0.27906 0,0.11629 -0.12793,0.81396 -0.12793,0.69766 -0.12793,0.82556 0,0.93023 0.55813,1.54651 0.56974,0.60464 1.44179,0.60464 1.24413,0 2.12781,-1.43022 0.89531,-1.44185 0.89531,-3.52322 0,-1.4651 -0.80229,-2.29067 -0.79066,-0.8372 -2.19757,-0.8372 -0.63951,0 -0.98834,0.093 -0.34881,0.0814 -0.46509,0.0814 -0.20929,0 -0.20929,-0.22092 0,-0.0814 0.13953,-0.59302 l 1.81387,-6.5232 q 0.18603,-0.68603 0.56974,-0.68603 0.0814,0 0.39533,0.0697 1.11622,0.2558 2.45337,0.2558 1.54645,0 3.29056,-0.32558 z"
           id="path16-3"
           inkscape:label="21 June 2025" /><path
           style="font-weight:bold;font-size:36.0006px;font-family:'Script MT Bold';-inkscape-font-specification:'Script MT Bold,  Bold';text-align:center;text-anchor:middle;fill:#ffffff;fill-opacity:1;stroke:#000000;stroke-width:0.132297;stroke-opacity:1"
           d="m 73.075828,173.28766 q -5.20907,5.60459 -9.48795,5.60459 -2.60453,0 -3.97656,-2.5116 -1.34878,-2.5116 -1.34878,-6.72086 0,-3.25578 1.32552,-8.9534 1.34878,-5.69762 3.46496,-9.5813 l 1.34878,-2.41859 q -2.76732,2.8837 -4.53468,6.32552 -1.76736,3.41858 -4.23237,9.58131 -2.44175,6.16272 -3.6975,8.39526 -1.25576,2.23254 -2.4185,3.65113 -1.13948,1.39534 -2.04642,1.81394 -0.88368,0.41859 -3.11614,0.41859 -0.86042,0 -0.86042,-0.46511 0,-0.0466 0.30231,-1.4651 0.30231,-1.41859 0.60462,-4.53484 0.32557,-3.13951 0.4651,-10.6278 0.13953,-7.51156 2.18595,-12.86033 -2.18595,2.48834 -4.46492,11.58127 l -0.58137,2.27905 q -2.39524,9.46502 -5.48812,12.79057 -3.09289,3.30229 -6.0695,3.30229 -1.83712,0 -3.23241,-1.16277 -1.39528,-1.16278 -1.39528,-2.6744 0,-1.16278 1.67434,-2.60462 1.6976,-1.44184 2.13944,-1.44184 0.5116,0 0.67438,0.34882 0.16279,0.34884 0.41859,1.93022 0.2558,1.55812 0.76741,2.04649 0.53486,0.46511 1.32552,0.46511 1.79062,0 3.95331,-3.58136 2.16269,-3.60461 3.95331,-11.11617 l 0.67439,-2.81392 q 0.81391,-3.44182 1.60458,-5.48833 0.79066,-2.04649 2.09293,-4.09298 1.88363,-2.9302 2.30222,-3.11623 0.44184,-0.20931 1.62783,-0.32558 1.18599,-0.13954 2.37199,-0.13954 0.46509,0 0.46509,0.53488 0,0.2558 -0.13953,1.0465 -0.44184,3.25578 -0.41858,6.53481 l 0.0465,6.2325 q 0.0465,8.13946 -1.30227,13.13941 1.2325,-1.48836 3.58123,-7.67434 3.3952,-8.76735 6.18577,-13.16267 1.32552,-2.11625 3.1859,-4.04647 1.88364,-1.95347 2.60454,-2.093 2.465,-0.46512 4.1626,-0.46512 0.62788,0 0.62788,0.34884 0,0.48837 -0.76741,2.18603 -1.81387,4.09298 -3.39519,11.06966 -1.55807,6.97667 -1.55807,11.11616 0,4.67437 2.86033,4.67437 2.32548,0 5.53464,-3.95345 z m 24.81283,0 q -3.72076,3.53485 -5.32534,4.60461 -1.60458,1.06974 -3.06963,1.06974 -3.67425,0 -3.46496,-6.48829 -2.32548,3.32554 -4.30213,4.90692 -1.9534,1.58137 -4.04633,1.58137 -2.04642,0 -3.48822,-1.90695 -1.41854,-1.9302 -1.41854,-4.72087 0,-3.48835 1.9069,-6.6511 1.93014,-3.16277 4.93,-5.11623 2.99987,-1.95347 5.30209,-1.95347 2.90685,0 4.06959,2.67439 l 4.74397,-2.62788 h 1.30226 l -2.04642,6.81388 q -1.58132,5.13948 -1.58132,7.04644 0,1.99999 1.41854,1.99999 0.90694,0 1.99991,-0.95349 1.09297,-0.97673 3.06963,-2.95346 z m -17.02249,1.27905 q 2.32548,0 4.3719,-3.95345 2.06967,-3.9767 2.06967,-7.3255 0,-1.30231 -0.58137,-2.02324 -0.58137,-0.74418 -1.55807,-0.74418 -2.32547,0 -4.4184,3.95345 -2.06968,3.95345 -2.06968,7.27899 0,1.25581 0.60463,2.04651 0.62788,0.76742 1.58132,0.76742 z m 30.393982,-1.27905 q -2.9301,2.90694 -5.06954,4.30228 -2.13944,1.37207 -4.06958,1.37207 -1.99991,0 -3.255672,-1.67439 -1.2325,-1.69766 -1.2325,-4.44182 0,-2.41859 1.16274,-6.39528 l 1.02321,-3.5116 -1.79062,0.093 0.74415,-3.65112 2.209202,-0.093 2.18595,-7.25573 6.23228,-1.27907 -2.37199,8.09295 3.23242,-0.18604 -0.76741,3.58135 -3.60449,0.27907 -1.55807,5.20926 q -0.79066,2.72089 -0.79066,4.32553 0,1.09301 0.53486,1.79068 0.55811,0.67442 1.41854,0.67442 1.18599,0 2.34873,-0.74418 1.16274,-0.76744 3.41845,-3.16277 z m 7.13922,-13.62777 q 1.60458,-0.4186 3.23241,-0.67442 1.62783,-0.27907 1.9534,-0.27907 0.23255,0 0.23255,0.18605 0,0.34884 -0.18604,0.72092 -0.37208,1.06977 -0.37208,2.04649 0,1.2093 1.39529,3.3023 1.39529,2.093 1.39529,3.88368 0,3.55811 -3.41845,6.8604 -3.3952,3.30229 -7.0462,3.30229 -1.58132,0 -2.88359,-0.8372 -1.30227,-0.83721 -1.30227,-1.79068 0,-0.55813 1.27902,-2.11626 1.30226,-1.55812 1.86038,-1.55812 0.74415,0 1.32552,1.90696 0.58137,1.90695 1.99991,1.90695 1.41854,0 2.65104,-1.30231 1.25576,-1.32557 1.25576,-2.83718 0,-1.4651 -1.58133,-3.90693 -1.58132,-2.44185 -2.09292,-4.09299 -2.69756,4.34879 -6.8369,8.90689 h -0.53486 v -2.09301 q 5.69741,-6.0697 7.67407,-11.53476 z m 36.99831,13.62777 q -3.72075,3.53485 -5.32533,4.60461 -1.60457,1.06974 -3.06964,1.06974 -3.67425,0 -3.46495,-6.48829 -2.32548,3.32554 -4.30214,4.90692 -1.95339,1.58137 -4.04632,1.58137 -2.04642,0 -3.48821,-1.90695 -1.41855,-1.9302 -1.41855,-4.72087 0,-3.48835 1.90689,-6.6511 1.93015,-3.16277 4.93002,-5.11623 2.99985,-1.95347 5.30208,-1.95347 2.90685,0 4.06958,2.67439 l 4.74398,-2.62788 h 1.30227 l -2.04642,6.81388 q -1.58132,5.13948 -1.58132,7.04644 0,1.99999 1.41853,1.99999 0.90694,0 1.99991,-0.95349 1.09298,-0.97673 3.06962,-2.95346 z m -17.02248,1.27905 q 2.32547,0 4.37189,-3.95345 2.06968,-3.9767 2.06968,-7.3255 0,-1.30231 -0.58137,-2.02324 -0.58137,-0.74418 -1.55807,-0.74418 -2.32547,0 -4.4184,3.95345 -2.06968,3.95345 -2.06968,7.27899 0,1.25581 0.60463,2.04651 0.62788,0.76742 1.58132,0.76742 z m 42.30043,-14.90682 v -1.95347 q 0,-5.186 2.7208,-8.60456 2.72081,-3.44183 6.76713,-3.44183 2.23246,0 3.83704,0.99998 1.62784,0.99999 1.62784,2.32556 0,0.76744 -1.51157,1.90696 -1.51155,1.13953 -1.86037,1.13953 -0.7209,0 -0.88368,-1.34883 -0.13953,-1.37208 -0.7209,-2.20928 -0.58137,-0.86045 -1.60458,-0.86045 -1.25576,0 -1.97666,1.62789 -0.7209,1.62789 -0.7209,4.51158 0,4.60461 1.48831,10.46501 1.48831,5.86041 2.95336,8.34876 1.46505,2.48834 3.20915,2.48834 1.65109,0 2.95336,-1.62789 0.48835,-0.48837 0.67438,-0.48837 0.30231,0 0.65114,0.3721 0.34883,0.37208 0.34883,0.58138 0,0.69767 -2.34873,2.88369 -2.34875,2.18602 -5.11606,2.18602 -2.09292,0 -3.74401,-1.25579 -1.62784,-1.2558 -3.16266,-3.90693 -2.88358,2.65113 -5.11604,3.90693 -2.20921,1.25579 -4.74398,1.25579 -2.76731,0 -4.53468,-1.74416 -1.76736,-1.76743 -1.76736,-4.51158 0,-7.16272 12.58084,-13.04638 z m 2.81383,12.44173 q -1.83714,-4.27903 -2.76733,-10.58129 -3.3952,1.58138 -4.99978,3.37206 -1.58132,1.79068 -1.58132,4.44182 0,2.39533 1.25577,4.16275 1.279,1.74417 2.95335,1.74417 0.9767,0 2.04642,-0.6279 1.09297,-0.62791 3.09289,-2.51161 z m 52.76504,1.18604 q -2.16269,2.41858 -8.48798,4.90693 -2.18595,6.25575 -5.8602,9.20921 -3.65101,2.97671 -6.90667,2.97671 -1.4883,0 -2.4185,-0.95348 -0.90694,-0.93022 -0.90694,-2.46509 0,-5.11623 9.95304,-8.58131 1.76736,-10.48826 2.60454,-14.32544 0.83717,-3.86043 1.93015,-6.06971 1.09297,-2.23254 3.37194,-5.13948 2.27896,-2.9302 2.86033,-3.86043 -2.2557,1.20929 -3.81378,1.20929 -0.9302,0 -2.25572,-0.55813 -1.32552,-0.55813 -2.37197,-0.55813 -1.74412,0 -3.09289,1.32557 -1.32552,1.30231 -1.32552,2.9767 0,1.44186 1.18599,2.37207 1.186,0.90697 1.186,1.27907 0,0.34883 -1.04647,1.5116 -1.04646,1.16278 -1.67435,1.16278 -0.60462,0 -1.53482,-1.13952 -0.93018,-1.16278 -0.93018,-2.90694 0,-3.51159 3.32543,-6.93017 3.32544,-3.44182 6.72062,-3.44182 1.11624,0 2.4185,0.62789 1.30227,0.60465 2.20921,0.60465 1.25575,0 2.69755,-1.23254 1.81387,0.2093 1.81387,0.69767 0,0.32558 -1.06971,2.02323 -1.04647,1.67441 -1.90689,4.30229 -0.83718,2.60462 -1.44181,6.83713 l -0.34881,2.32556 q -1.48831,10.51153 -2.60455,14.41846 4.99978,-1.69765 7.72059,-5.27902 z m -15.16211,7.18597 q -7.6043,2.69765 -7.6043,6.279 0,0.72093 0.44184,1.18604 0.4651,0.48837 1.16274,0.48837 1.55806,0 3.23241,-1.8837 1.69759,-1.86045 2.76731,-6.06971 z m 39.97496,-7.18597 q -3.06963,2.90694 -5.1393,4.30228 -2.06968,1.37207 -3.72077,1.37207 -1.83712,0 -2.83709,-1.4651 -0.97669,-1.4651 -0.97669,-3.9767 -2.55802,2.81393 -4.58119,4.16275 -2.02316,1.32557 -3.95331,1.32557 -1.76736,0 -2.83707,-1.4651 -1.06973,-1.4651 -1.06973,-3.97671 0,-4.83716 3.25567,-13.62776 l 6.18577,-1.23256 q -3.81379,11.13943 -3.81379,14.30219 0,2.23254 1.67435,2.23254 1.20925,0 2.99987,-1.95347 1.7906,-1.97673 2.23244,-3.44183 l 3.04639,-9.90687 6.32529,-1.27906 q -2.18594,6.99993 -2.99987,9.83711 -0.81391,2.83717 -0.81391,3.97671 0,2.18602 1.48831,2.18602 1.20924,0 3.58122,-2.20928 l 1.95341,-1.8372 z m 7.13921,-13.62777 q 1.60457,-0.4186 3.23241,-0.67442 1.62783,-0.27907 1.95339,-0.27907 0.23255,0 0.23255,0.18605 0,0.34884 -0.18604,0.72092 -0.37207,1.06977 -0.37207,2.04649 0,1.2093 1.39528,3.3023 1.39529,2.093 1.39529,3.88368 0,3.55811 -3.41845,6.8604 -3.3952,3.30229 -7.04619,3.30229 -1.58132,0 -2.8836,-0.8372 -1.30227,-0.83721 -1.30227,-1.79068 0,-0.55813 1.27902,-2.11626 1.30227,-1.55812 1.86038,-1.55812 0.74415,0 1.32552,1.90696 0.58137,1.90695 1.99991,1.90695 1.41855,0 2.65104,-1.30231 1.25577,-1.32557 1.25577,-2.83718 0,-1.4651 -1.58134,-3.90693 -1.58132,-2.44185 -2.09292,-4.09299 -2.69755,4.34879 -6.8369,8.90689 h -0.53486 v -2.09301 q 5.69741,-6.0697 7.67408,-11.53476 z m 25.55698,13.62777 q -2.9301,2.90694 -5.06954,4.30228 -2.13944,1.37207 -4.06958,1.37207 -1.99991,0 -3.25567,-1.67439 -1.2325,-1.69766 -1.2325,-4.44182 0,-2.41859 1.16274,-6.39528 l 1.02321,-3.5116 -1.79062,0.093 0.74415,-3.65112 2.20921,-0.093 2.18594,-7.25573 6.23227,-1.27907 -2.37197,8.09295 3.23241,-0.18604 -0.76741,3.58135 -3.6045,0.27907 -1.55806,5.20926 q -0.79067,2.72089 -0.79067,4.32553 0,1.09301 0.53487,1.79068 0.55811,0.67442 1.41854,0.67442 1.18599,0 2.34873,-0.74418 1.16273,-0.76744 3.41845,-3.16277 z m 10.95299,-23.67419 q 0,5.58134 -4.11609,5.58134 -1.99991,0 -3.41846,-1.20929 1.34878,-2.04649 2.09293,-4.6046 1.83714,1.13952 2.95336,1.13952 1.25576,0 2.48826,-0.90697 z m 0.4651,23.67419 q -5.44162,5.72087 -8.13918,5.72087 -1.48829,0 -2.5115,-1.51162 -1.02322,-1.53486 -1.02322,-3.83717 0,-4.95343 3.34869,-13.72078 l 5.90672,-1.23256 h 0.27905 l -2.32548,7.27901 q -1.4418,4.51158 -1.4418,6.44179 0,0.76744 0.32557,1.2558 0.34883,0.46511 0.86043,0.46511 0.90694,0 1.81387,-0.65115 0.9302,-0.67442 2.90685,-2.8837 z m 22.83619,0 q -5.37185,5.67435 -9.20889,5.67435 -1.55807,0 -2.51152,-1.093 -0.95344,-1.09302 -0.95344,-2.9302 0,-2.48835 2.04642,-7.60458 1.09297,-2.74416 1.09297,-3.48834 0,-0.74418 -0.58137,-0.74418 -0.32556,0 -0.86042,0.32558 -0.48835,0.32558 -1.13948,0.90697 -0.58137,0.53487 -1.30227,1.30231 -0.62788,0.65116 -1.34878,1.48836 l -1.30226,1.51162 q -0.86043,1.0465 -1.06973,2.20928 -0.34881,1.97671 -0.46509,3.62786 -0.0697,1.23255 -0.0697,3.32555 l -5.1393,1.20929 q -0.2558,-3.13951 -0.2558,-4.67437 0,-3.74415 0.86042,-7.09296 0.88368,-3.3488 2.81382,-7.53481 l 5.67417,-1.093 q -1.79062,4.8139 -2.34873,7.58131 3.81378,-4.25577 6.04624,-5.88366 2.2557,-1.65114 3.99982,-1.65114 1.18598,0 1.97665,0.90696 0.79066,0.88371 0.79066,2.23254 0,2.23254 -1.99991,7.34876 -1.37203,3.51159 -1.37203,4.5581 0,1.39534 1.13948,1.39534 1.6976,0 5.48813,-4.48834 z"
           id="path15-3"
           inkscape:label="Matsa &amp; Justin" /><path
           fill="#000000"
           d="m 277.31334,195.20232 c -0.0568,0.0923 -0.39773,0.67471 -0.75805,1.29687 -0.63873,1.10227 -1.10843,1.74005 -2.20691,3.02271 l -0.2519,0.29925 h -1.21733 l -0.40246,0.33475 -0.39725,0.32954 -0.80919,1.68844 -0.80918,1.68892 -0.0355,1.00426 c -0.0871,2.49667 -0.30918,4.00046 -0.68134,4.61362 -0.25189,0.41666 -0.61364,0.84517 -1.50616,1.78077 -0.42234,0.44318 -0.89204,0.97301 -1.04687,1.18371 -0.86553,1.1837 -2.6965,3.34184 -3.58902,4.24714 -0.35085,0.35085 -0.67045,0.62358 -0.82481,0.70028 -0.30918,0.15957 -0.866,0.73674 -1.50094,1.55539 -0.26279,0.33997 -0.53599,0.6946 -0.61364,0.79356 -0.28409,0.36506 -0.98485,0.53504 -1.33617,0.31913 -0.41714,-0.25189 -0.57671,-1.14299 -0.42756,-2.40482 0.0303,-0.26752 0.0516,-0.49953 0.0355,-0.50994 -0.0104,-0.0104 -0.83002,0.18608 -1.82008,0.44318 -0.99526,0.25142 -1.99573,0.50994 -2.22679,0.56676 l -0.42519,0.10795 v 9.44363 c 0,5.19458 0.0161,9.44314 0.0412,9.44314 0.0208,0 1.70644,-0.0568 3.74858,-0.12926 2.04214,-0.0724 3.8518,-0.12926 4.02225,-0.12926 l 0.30871,-0.005 -0.26799,-0.12358 c -1.36079,-0.61837 -1.84517,-1.82859 -1.3821,-3.45501 0.18087,-0.62357 0.74716,-1.76135 1.26847,-2.54402 0.9124,-1.35937 2.5213,-3.40908 3.56818,-4.54639 0.91193,-0.98863 1.36079,-1.26704 2.92377,-1.81249 1.01515,-0.35085 1.30918,-0.4839 1.9588,-0.87026 0.63873,-0.38637 3.37642,-1.74005 4.33097,-2.14725 0.41193,-0.16998 1.02557,-0.41146 1.366,-0.52983 l 0.61932,-0.21117 1.46922,0.006 c 1.94413,0 4.33618,0.16999 5.06866,0.35985 0.46875,0.11837 2.09896,0.62311 2.68087,0.82907 l 0.50047,0.1804 v 0.38636 c 0,0.4536 0.0923,0.68418 0.27841,0.68418 0.19129,0 0.47396,-0.13873 1.83997,-0.88068 2.26941,-1.23105 2.41856,-1.28645 3.80965,-1.39062 1.96402,-0.15435 4.77463,0.24243 6.50616,0.9053 0.55208,0.21118 0.64441,0.26279 1.3821,0.70029 0.32481,0.19081 0.75758,0.40198 0.95455,0.4588 1.3357,0.41098 2.7268,0.95265 5.56771,2.17234 l 1.80445,0.77225 0.67045,0.52462 c 4.30445,3.34706 6.83097,6.19932 6.83097,7.71778 0,0.40767 -0.0975,0.65388 -0.37074,0.91619 l -0.2429,0.2429 1.68561,0.0303 c 0.92803,0.0156 1.99053,0.0407 2.36647,0.0563 l 0.67614,0.0265 0.005,-10.27127 0.0104,-10.27648 -0.53077,0.40719 c -2.11837,1.62168 -4.14962,2.72869 -5.56771,3.02272 -0.46449,0.0975 -1.0876,0.0975 -1.42803,-0.005 -0.17566,-0.0516 -0.44366,-0.21118 -0.79451,-0.47869 -0.2893,-0.21591 -0.76326,-0.56156 -1.04687,-0.76705 -0.77889,-0.54592 -0.96355,-0.78314 -2.40767,-3.05302 -1.34517,-2.11552 -2.30493,-3.42328 -3.18135,-4.33521 l -0.48958,-0.51562 0.0213,-3.35226 c 0.0104,-2.29593 0,-3.41903 -0.0412,-3.55776 -0.0672,-0.2571 -0.5625,-0.8802 -1.27888,-1.62641 -0.66525,-0.68939 -0.5876,-0.64867 -3.41903,-1.78645 -1.11932,-0.45313 -2.12358,-0.86458 -2.2268,-0.91572 -0.18608,-0.0871 -0.20597,-0.0871 -0.47917,0 -0.35085,0.10795 -0.5928,0.30303 -0.5928,0.47301 0,0.26231 0.68134,1.6212 0.91761,1.83759 0.0777,0.0724 1.59849,0.38068 2.59375,0.52462 0.34564,0.0516 0.35133,0.0568 0.29451,0.42187 -0.0303,0.17519 -0.036,0.38068 -0.0213,0.4536 0.0213,0.0777 0.26278,0.38068 0.5464,0.6695 0.69034,0.72112 0.69034,0.72633 0.52557,1.22064 -0.0729,0.22112 -0.16004,0.40199 -0.19129,0.40199 -0.036,0 -0.26799,-0.28362 -0.52178,-0.63257 -1.3196,-1.83381 -1.54687,-2.06439 -2.16998,-2.22396 -0.46449,-0.11316 -2.93276,-0.27272 -4.69129,-0.29924 l -0.83002,-0.0104 -0.84611,0.42187 c -1.51563,0.75663 -2.99527,1.616 -3.18656,1.8428 -0.15435,0.18561 0.15957,0.88021 0.61885,1.34327 0.65483,0.66951 1.16572,0.58618 2.86695,-0.46827 0.39204,-0.24242 0.74195,-0.4375 0.78409,-0.4375 0.0426,0 0.6089,0.17519 1.25805,0.38636 0.64962,0.21591 1.28456,0.40199 1.40199,0.41619 l 0.2268,0.0303 0.26278,0.96259 c 0.39205,1.43655 0.40815,1.51325 0.2893,1.72916 -0.14915,0.28362 -0.5625,0.64346 -0.73248,0.64346 -0.0781,0 -0.366,-0.0975 -0.634,-0.21117 -1.34469,-0.57197 -2.16998,-0.8911 -2.53693,-0.98295 -0.47916,-0.11885 -0.64394,-0.0975 -1.39252,0.19507 -0.69034,0.26231 -3.14015,1.48295 -3.29451,1.63684 -0.0729,0.0672 -0.27367,0.4588 -0.45975,0.86505 -0.45407,1.01373 -0.76278,1.63683 -0.82481,1.63683 -0.0724,0 -0.0975,-0.14347 -0.15436,-0.8802 -0.0265,-0.35985 -0.0729,-0.7107 -0.098,-0.77794 -0.062,-0.16477 -0.88163,-1.06628 -1.5928,-1.75047 -0.82528,-0.79355 -1.57244,-1.32859 -1.86127,-1.32859 -0.34091,0 -3.67093,0.98343 -4.55303,1.34327 -0.93324,0.38589 -0.96875,0.38068 -0.96875,-0.0819 0,-0.38115 0.12926,-1.68844 0.23769,-2.44507 0.14394,-1.00473 0.0568,-0.86505 1.20123,-1.79166 1.19602,-0.97253 3.6089,-3.00662 4.4233,-3.73294 0.53598,-0.47869 0.58191,-0.53504 0.61363,-0.74621 0.0781,-0.51515 -0.0923,-1.62121 -0.27841,-1.82812 -0.20075,-0.22159 -0.80918,0.062 -1.66051,0.76704 -1.42282,1.1785 -2.7642,2.17235 -3.8054,2.81676 -0.58759,0.36552 -1.14441,0.72111 -1.23721,0.78835 -0.18608,0.14394 -0.48958,0.58143 -1.01468,1.46211 -0.24716,0.41667 -0.47917,0.72633 -0.78977,1.03977 -0.2429,0.2519 -0.44839,0.44318 -0.45928,0.43797 -0.0156,-0.0213 0.77367,-2.38872 1.00615,-3.00188 0.0871,-0.23201 0.28883,-0.67992 0.44839,-1.00426 0.6037,-1.19933 1.4233,-3.17139 1.59896,-3.84137 0.10796,-0.41098 -0.0265,-0.67992 -0.45407,-0.8963 -0.40672,-0.20691 -0.43324,-0.20691 -0.54119,-0.026 z m 5.85653,14.06103 c 0.2893,0.14867 1.10369,0.68939 1.70171,1.1321 0.47916,0.35085 0.61363,0.54072 0.99005,1.38541 0.23201,0.52083 0.29925,0.59185 0.63873,0.70549 0.35086,0.11316 0.67567,0.0814 0.96355,-0.0975 0.14914,-0.0923 0.33001,-0.15956 0.42234,-0.15956 0.37074,0 1.07718,-0.56155 2.00095,-1.5857 0.32481,-0.36553 0.42282,-0.43797 0.67614,-0.52462 0.57291,-0.20075 1.30918,-0.36553 1.74763,-0.39678 l 0.43845,-0.0303 0.43797,0.25663 c 0.23769,0.14394 0.58239,0.34043 0.76847,0.44318 0.68087,0.37026 2.75331,1.90482 3.14536,2.3319 0.2732,0.29925 0.2945,0.4072 0.15435,0.96212 -0.0672,0.28362 -0.12926,0.74621 -0.15435,1.16903 -0.0303,0.57244 -0.0568,0.741 -0.15957,0.95312 -0.17045,0.35985 -0.53598,0.70549 -0.97964,0.93229 -0.21117,0.10275 -0.43276,0.23201 -0.5,0.27794 -0.12973,0.10274 -0.54687,0.20028 -1.50615,0.35984 -0.35654,0.0568 -0.88211,0.15436 -1.17093,0.2107 -0.2893,0.0568 -1.18561,0.21639 -1.99574,0.35086 -1.30445,0.22159 -1.50095,0.26751 -1.6804,0.39157 -0.30918,0.2107 -0.93892,0.85937 -1.4588,1.49336 -0.2519,0.30871 -0.48438,0.57197 -0.50569,0.58144 -0.026,0.0104 -0.0459,-0.0213 -0.0459,-0.0672 0,-0.0516 -0.0729,-0.2268 -0.16004,-0.39158 -0.47349,-0.89109 -2.14489,-2.02319 -3.3196,-2.2552 -0.62453,-0.12405 -1.98012,-0.29403 -3.06771,-0.38636 -0.91714,-0.0777 -1.00568,-0.10795 -1.61837,-0.59706 -0.28362,-0.22159 -0.42756,-0.38115 -0.5251,-0.57197 -0.17045,-0.34564 -0.35653,-1.1695 -0.45975,-2.08048 -0.12406,-1.07008 -0.11837,-1.24006 0.0265,-1.54451 0.26279,-0.52509 1.4233,-1.53976 2.45408,-2.14251 0.61884,-0.35985 2.33475,-1.23105 2.42329,-1.23105 0.0398,0.001 0.18513,0.0582 0.31818,0.12547 z m 0,0"
           fill-opacity="1"
           fill-rule="nonzero"
           id="path2-6-2"
           style="display:inline;fill:#ffffff;fill-opacity:1;stroke:#000000;stroke-width:0.121;stroke-dasharray:none;stroke-opacity:1"
           inkscape:label="Heart" /><path
           fill="#100f0d"
           d="m 98.131177,224.73343 c -0.60583,-2.28214 -2.9661,-7.13234 -12.1488,-12.01607 -6.91706,-3.67858 -11.6441,-4.15273 -14.51407,-3.83429 0.41007,-0.99788 0.71199,-1.96221 0.86871,-2.86846 2.8955,-0.28339 7.79778,0.2193 15.0443,4.07212 11.46535,6.09741 12.722593,12.04111 12.859783,13.1957 -0.19978,0.31394 -0.807123,1.01791 -2.109923,1.451 z m -0.40856,4.32798 c -2.71075,1.94819 -10.22815,1.54713 -18.82503,-3.02418 -5.98178,-3.17938 -9.95026,-7.04021 -11.80032,-10.22661 0.67994,-0.81061 1.3038,-1.62474 1.86758,-2.43636 0.51672,0.67543 1.14108,1.37891 1.92617,2.11442 4.42662,4.15073 9.82458,6.70926 9.95777,6.76734 0.21629,0.12767 5.3549,3.17388 11.27158,4.52274 3.73016,0.85618 6.15752,0.38403 7.70465,-0.40055 -0.35849,0.90625 -0.99187,1.8856 -2.1024,2.6832 z m -37.66508,-9.35491 c -7.58299,6.10542 -14.8906,7.9014 -17.92078,6.50698 -1.23972,-0.5768 -2.04684,-1.41846 -2.56856,-2.2411 0.66893,0.19127 1.47604,0.29992 2.42035,0.26988 0.008,0 0.015,0.004 0.023,0.004 0.0391,0 0.0801,-0.008 0.11967,-0.0125 1.38041,-0.0641 3.05222,-0.42609 5.07852,-1.31382 5.55769,-2.43636 10.03287,-6.39382 10.13852,-6.49396 0.20378,-0.1457 5.02345,-3.67256 8.59188,-8.58234 2.24911,-3.09226 2.77484,-5.5086 2.66068,-7.23949 0.69346,0.68695 1.34436,1.65379 1.64077,2.98813 0.7245,3.25549 -2.5991,10.01081 -10.18408,16.11423 z m 5.85609,-16.10172 c -0.35048,0.8687 -0.88322,1.85506 -1.70285,2.98212 -3.36365,4.62688 -8.07266,8.07464 -8.20234,8.17528 -0.0431,0.0396 -4.42012,3.90238 -9.65736,6.19905 -1.27776,0.56027 -2.35676,0.8697 -3.28053,1.02642 0.20077,-1.89912 1.51809,-6.4514 8.86626,-12.36657 7.34465,-5.91115 12.07019,-6.22609 13.97682,-6.0163 z m -27.3363,17.41003 c -0.0826,-1.14559 0.019,-7.22597 10.15004,-15.38023 10.11699,-8.14223 16.08123,-6.9596 17.19227,-6.63115 0.22681,0.32595 0.6519,1.14859 0.53124,2.51347 -2.32322,-0.34547 -7.72318,-0.10464 -15.85493,6.43789 -8.13074,6.54553 -9.51866,11.76873 -9.67738,14.11147 -1.36839,-0.17274 -2.07988,-0.76806 -2.34124,-1.05145 z m 31.71085,-9.73544 c 1.93267,-0.54725 6.58611,-0.98385 14.68931,3.32609 8.27845,4.40157 10.45246,8.60337 11.02224,10.45543 -0.9408,0.025 -2.03631,-0.0536 -3.4032,-0.36551 -5.57721,-1.27426 -10.60066,-4.24586 -10.74436,-4.32496 -0.0531,-0.0245 -5.32636,-2.52849 -9.49913,-6.44139 -0.97085,-0.91026 -1.64828,-1.7384 -2.14998,-2.49745 0.0296,-0.0511 0.0561,-0.10114 0.0851,-0.15221 z m 32.110403,12.18131 c -0.007,-0.726 -0.42659,-8.03709 -14.012373,-15.26206 -7.40875,-3.93793 -12.62346,-4.60786 -15.95406,-4.34549 -0.0235,-0.24684 -0.0506,-0.49218 -0.10214,-0.7245 -0.99288,-4.45866 -4.85772,-5.86009 -5.37544,-6.03032 -0.53424,-0.22982 -7.44579,-2.88448 -19.56856,6.86998 -12.00359,9.66383 -11.02124,16.92685 -10.89456,17.62381 0.0451,0.46414 0.55376,4.61737 4.74506,6.56055 0.92628,0.4286 2.04483,0.63538 3.30207,0.63538 4.60186,0 11.07481,-2.75831 16.86031,-7.41523 1.54213,-1.24121 2.95358,-2.56053 4.22634,-3.9104 2.36628,3.66806 6.78138,7.54541 12.26747,10.46294 5.33888,2.83992 10.88805,4.35601 15.20602,4.35601 2.43437,0 4.4777,-0.48267 5.87112,-1.48255 3.757203,-2.70022 3.471803,-6.88199 3.428743,-7.33812"
           fill-opacity="1"
           fill-rule="nonzero"
           id="path2-9-3"
           style="fill:#ffffff;fill-opacity:1;stroke:#000000;stroke-width:0.128177;stroke-opacity:1"
           inkscape:label="Rings" /></g></g></g></svg>
